<svg width="24" height="24" viewBox="0 0 24 24" fill="none" xmlns="http://www.w3.org/2000/svg">
<path fill-rule="evenodd" clip-rule="evenodd" d="M13.824 5.57645L13.584 4.39056C13.536 4.15998 13.424 3.97056 13.248 3.82233C13.072 3.67409 12.872 3.59998 12.648 3.59998H5.75999C5.48799 3.59998 5.25983 3.69452 5.07551 3.8836C4.89183 4.07334 4.79999 4.30821 4.79999 4.58821V19.4117C4.79999 19.6917 4.89183 19.9263 5.07551 20.1154C5.25983 20.3051 5.48799 20.4 5.75999 20.4C6.03199 20.4 6.26015 20.3051 6.44447 20.1154C6.62815 19.9263 6.71999 19.6917 6.71999 19.4117V13.4823H12.096L12.336 14.6682C12.384 14.8988 12.496 15.0882 12.672 15.2364C12.848 15.3847 13.048 15.4588 13.272 15.4588H18.24C18.512 15.4588 18.7398 15.3639 18.9235 15.1742C19.1078 14.9851 19.2 14.7506 19.2 14.4706V6.56468C19.2 6.28468 19.1078 6.04981 18.9235 5.86007C18.7398 5.67099 18.512 5.57645 18.24 5.57645H13.824ZM13.0706 14.5169C13.0853 14.5863 13.1112 14.6258 13.1551 14.6628C13.1999 14.7005 13.23 14.7088 13.272 14.7088H18.24C18.3157 14.7088 18.3469 14.6915 18.3846 14.6525L18.3865 14.6507C18.4254 14.6107 18.45 14.568 18.45 14.4706V6.56468C18.45 6.46721 18.4253 6.42363 18.3855 6.38266C18.3481 6.34407 18.3166 6.32645 18.24 6.32645H13.2106L12.8494 4.54185C12.8347 4.47246 12.8088 4.43301 12.7648 4.39597C12.72 4.35824 12.69 4.34998 12.648 4.34998H5.75999C5.684 4.34998 5.65154 4.36739 5.61349 4.40617C5.5745 4.44673 5.54999 4.49069 5.54999 4.58821V19.4117C5.54999 19.51 5.57482 19.553 5.61347 19.5928C5.65214 19.6326 5.68423 19.65 5.75999 19.65C5.83574 19.65 5.86784 19.6326 5.90651 19.5928C5.94515 19.553 5.96999 19.51 5.96999 19.4117V12.7323H12.7094L13.0706 14.5169Z" fill="white"/>
</svg>
