<svg width="24" height="24" viewBox="0 0 24 24" fill="none" xmlns="http://www.w3.org/2000/svg">
<path d="M5.75999 20.4C5.48799 20.4 5.25983 20.3051 5.07551 20.1154C4.89183 19.9263 4.79999 19.6917 4.79999 19.4117V4.58821C4.79999 4.30821 4.89183 4.07334 5.07551 3.8836C5.25983 3.69452 5.48799 3.59998 5.75999 3.59998H12.648C12.872 3.59998 13.072 3.67409 13.248 3.82233C13.424 3.97056 13.536 4.15998 13.584 4.39056L13.824 5.57645H18.24C18.512 5.57645 18.7398 5.67099 18.9235 5.86007C19.1078 6.04981 19.2 6.28468 19.2 6.56468V14.4706C19.2 14.7506 19.1078 14.9851 18.9235 15.1742C18.7398 15.3639 18.512 15.4588 18.24 15.4588H13.272C13.048 15.4588 12.848 15.3847 12.672 15.2364C12.496 15.0882 12.384 14.8988 12.336 14.6682L12.096 13.4823H6.71999V19.4117C6.71999 19.6917 6.62815 19.9263 6.44447 20.1154C6.26015 20.3051 6.03199 20.4 5.75999 20.4Z" fill="white"/>
</svg>
