<svg width="24" height="24" viewBox="0 0 24 24" fill="none" xmlns="http://www.w3.org/2000/svg">
<path fill-rule="evenodd" clip-rule="evenodd" d="M12 6.84315L11.1493 5.98817C9.11801 3.94657 5.40379 4.66761 4.0754 7.20418C3.45479 8.38922 3.31079 10.1036 4.45211 12.3052C5.55406 14.4308 7.84954 16.9817 12 19.7636C16.1504 16.9814 18.4459 14.4304 19.5479 12.3047C20.6892 10.1031 20.5452 8.3887 19.9246 7.20376C18.5963 4.66743 14.8821 3.94648 12.8507 5.98817L12 6.84315ZM12 21.2C-6.59694 9.18559 6.61104 -0.166324 11.9618 5.10382C11.9746 5.11639 11.9873 5.12905 12 5.14179C12.0127 5.12907 12.0254 5.11643 12.0381 5.10387C17.3889 -0.166394 30.597 9.18438 12 21.2Z" fill="white"/>
</svg>
