<svg width="20" height="14" viewBox="0 0 20 14" fill="none" xmlns="http://www.w3.org/2000/svg">
<path d="M11.6958 13.3868C11.4551 13.1446 11.3395 12.852 11.3491 12.509C11.3596 12.1659 11.4852 11.8733 11.7259 11.6312L15.1268 8.21076H1.70385C1.36276 8.21076 1.07665 8.09453 0.845506 7.86206C0.615169 7.6304 0.5 7.34305 0.5 7C0.5 6.65695 0.615169 6.36919 0.845506 6.13673C1.07665 5.90507 1.36276 5.78924 1.70385 5.78924H15.1268L11.6958 2.33856C11.4551 2.09641 11.3347 1.80865 11.3347 1.47529C11.3347 1.14273 11.4551 0.855381 11.6958 0.613228C11.9366 0.371076 12.2227 0.25 12.5542 0.25C12.8848 0.25 13.1705 0.371076 13.4113 0.613228L18.9189 6.15247C19.0393 6.27354 19.1248 6.40471 19.1754 6.54596C19.2251 6.68722 19.25 6.83856 19.25 7C19.25 7.16143 19.2251 7.31278 19.1754 7.45404C19.1248 7.59529 19.0393 7.72646 18.9189 7.84753L13.3812 13.417C13.1605 13.639 12.8848 13.75 12.5542 13.75C12.2227 13.75 11.9366 13.6289 11.6958 13.3868Z" fill="white"/>
</svg>
